<?xml version="1.0" standalone="no"?>
<!DOCTYPE svg PUBLIC "-//W3C//DTD SVG 20010904//EN"
 "http://www.w3.org/TR/2001/REC-SVG-20010904/DTD/svg10.dtd">
<svg version="1.0" xmlns="http://www.w3.org/2000/svg"
 width="260.000000pt" height="260.000000pt" viewBox="0 0 260.000000 260.000000"
 preserveAspectRatio="xMidYMid meet">
<metadata>
Created by potrace 1.11, written by Peter Selinger 2001-2013
</metadata>
<g transform="translate(0.000000,260.000000) scale(0.100000,-0.100000)"
fill="#000000" stroke="none">
<path d="M1250 1923 c-14 -9 -267 -257 -563 -552 -583 -582 -583 -581 -540
-639 11 -15 30 -32 42 -38 16 -8 142 -12 409 -12 419 0 427 1 451 55 18 40 13
73 -18 104 -33 32 -11 31 -415 30 l-160 0 370 370 369 369 5 -432 c4 -313 8
-439 17 -454 14 -25 60 -45 88 -40 11 3 24 5 30 5 15 1 1095 1083 1111 1114
19 36 11 77 -22 108 l-26 24 -396 1 c-265 1 -404 -2 -420 -9 -28 -13 -52 -56
-52 -92 0 -41 50 -85 97 -85 21 -1 144 -1 273 0 l235 0 -370 -370 -370 -370
-5 432 c-4 316 -8 439 -17 454 -11 20 -59 44 -87 44 -6 0 -23 -7 -36 -17z"/>
</g>
</svg>
