<?xml version="1.0" encoding="utf-8"?>
<!-- Generator: Adobe Illustrator 25.0.1, SVG Export Plug-In . SVG Version: 6.00 Build 0)  -->
<svg version="1.1" id="Layer_1" xmlns="http://www.w3.org/2000/svg" xmlns:xlink="http://www.w3.org/1999/xlink" x="0px" y="0px"
	 viewBox="0 0 100 65" style="enable-background:new 0 0 100 65;" xml:space="preserve">
<style type="text/css">
	.st0{clip-path:url(#SVGID_2_);}
	.st1{fill:#0D7282;}
	.st2{clip-path:url(#SVGID_4_);}
	.st3{clip-path:url(#SVGID_6_);}
	.st4{clip-path:url(#SVGID_8_);}
	.st5{clip-path:url(#SVGID_10_);}
</style>
<g>
	<defs>
		<rect id="SVGID_1_" x="-50.8" y="-28.7" width="200.8" height="125.5"/>
	</defs>
	<clipPath id="SVGID_2_">
		<use xlink:href="#SVGID_1_"  style="overflow:visible;"/>
	</clipPath>
	<g class="st0">
		<path class="st1" d="M68.6,21.8c0.5,0,0.9-0.2,1.3-0.5c0.7-0.7,0.7-1.7,0-2.4c0,0,0,0,0,0c-0.3-0.3-0.8-0.4-1.2-0.4
			c-0.5,0-0.9,0.2-1.3,0.5c-0.3,0.3-0.5,0.7-0.5,1.2c-0.1,0.4,0.1,0.9,0.5,1.1C67.7,21.7,68.1,21.8,68.6,21.8 M67.2,43.2h2.9V25
			h-2.9V43.2z"/>
	</g>
</g>
<g>
	<defs>
		<rect id="SVGID_3_" x="-50.8" y="-28.7" width="200.8" height="125.5"/>
	</defs>
	<clipPath id="SVGID_4_">
		<use xlink:href="#SVGID_3_"  style="overflow:visible;"/>
	</clipPath>
	<g class="st2">
		<path class="st1" d="M74.6,43.1h3V29.5L77,24.6l-3,0.5l0.5,4.8C74.5,29.9,74.6,43.1,74.6,43.1z M86.4,31.3v11.8h2.9V31.5
			c0.1-1.9-0.4-3.8-1.4-5.4c-0.9-1.1-2.2-1.7-3.6-1.7c-1.3,0-2.5,0.4-3.6,1.2c-1.4,1-2.6,2.2-3.6,3.6V30c0.9-1.1,2-2,3.1-2.8
			c0.8-0.5,1.7-0.8,2.7-0.8c1,0,1.9,0.4,2.5,1.2C86.1,28.3,86.4,29.6,86.4,31.3"/>
	</g>
</g>
<g>
	<defs>
		<rect id="SVGID_5_" x="-50.8" y="-28.7" width="200.8" height="125.5"/>
	</defs>
	<clipPath id="SVGID_6_">
		<use xlink:href="#SVGID_5_"  style="overflow:visible;"/>
	</clipPath>
	<g class="st3">
		<path class="st1" d="M38.8,42.1c-1.5,0-3-0.6-4.1-1.6c-1.3-1.1-2.4-2.5-3.2-4c-0.8-1.5-1.2-3.1-1.2-4.8c0-1,0.2-2,0.6-2.9
			c0.4-0.8,1-1.5,1.7-2c0.7-0.5,1.6-0.7,2.5-0.7c1.5,0,3,0.6,4.1,1.6c1.4,1.1,2.4,2.5,3.2,4.1c0.8,1.5,1.2,3.1,1.2,4.8
			c0,1-0.2,2-0.6,2.9c-0.4,0.8-1,1.5-1.7,2C40.5,41.9,39.7,42.1,38.8,42.1 M36.6,43.6c1.6,0,3.2-0.4,4.6-1.3
			c1.4-0.9,2.5-2.1,3.2-3.5c1.6-3.1,1.6-6.7,0.1-9.8c-0.7-1.4-1.7-2.5-3-3.3c-1.3-0.8-2.7-1.2-4.2-1.2c-1.7,0-3.3,0.5-4.7,1.4
			c-1.4,0.9-2.6,2.2-3.3,3.7c-0.8,1.6-1.2,3.3-1.2,5.1c0,1.6,0.4,3.2,1.1,4.6c0.7,1.3,1.7,2.4,3,3.2C33.5,43.2,35.1,43.6,36.6,43.6"
			/>
	</g>
</g>
<g>
	<defs>
		<rect id="SVGID_7_" x="-50.8" y="-28.7" width="200.8" height="125.5"/>
	</defs>
	<clipPath id="SVGID_8_">
		<use xlink:href="#SVGID_7_"  style="overflow:visible;"/>
	</clipPath>
	<g class="st4">
		<path class="st1" d="M10.5,43.1h3V29.5l-0.6-4.9L10,25.1l0.5,4.8V43.1z M22.3,31.3v11.8h2.9V31.5c0.1-1.9-0.4-3.8-1.4-5.4
			c-0.9-1.1-2.2-1.7-3.6-1.7c-1.3,0-2.5,0.4-3.6,1.2c-1.4,1-2.6,2.2-3.6,3.6V30c0.9-1.1,2-2,3.1-2.8c0.8-0.5,1.7-0.8,2.7-0.8
			c1,0,1.9,0.4,2.5,1.2C22,28.3,22.3,29.6,22.3,31.3"/>
	</g>
</g>
<g>
	<defs>
		<rect id="SVGID_9_" x="-50.8" y="-28.7" width="200.8" height="125.5"/>
	</defs>
	<clipPath id="SVGID_10_">
		<use xlink:href="#SVGID_9_"  style="overflow:visible;"/>
	</clipPath>
	<g class="st5">
		<path class="st1" d="M56.3,43.6c1.3,0,2.6-0.3,3.8-0.9c1.2-0.7,2.3-1.6,3.2-2.7l-0.4-0.4c-0.7,0.7-1.5,1.2-2.4,1.6
			c-0.9,0.4-1.8,0.5-2.7,0.5c-1.5,0-2.9-0.5-4-1.4c-1.1-1-2-2.2-2.5-3.6c-0.6-1.4-0.9-2.9-0.9-4.4c0-1.2,0.2-2.3,0.6-3.4
			c0.4-0.9,0.9-1.7,1.7-2.4c1.6-1.2,3.8-1.2,5.3,0.1c0.8,0.7,1.4,1.6,1.7,2.6c0.4,1,0.6,2,0.6,3.1v0.8l1.4-0.6H49.9v0.8h11.4
			c0.4,0,0.8,0,1.2-0.1c0.3-0.1,0.5-0.3,0.7-0.6c0.2-0.4,0.3-0.9,0.3-1.4c0-1.1-0.3-2.2-0.9-3.2c-1.2-2.1-3.5-3.4-6-3.3
			c-1.6,0-3.2,0.5-4.5,1.4c-1.4,0.9-2.5,2.2-3.2,3.7c-0.8,1.5-1.2,3.3-1.2,5c0,1.6,0.4,3.2,1.1,4.7c0.7,1.3,1.7,2.4,3,3.2
			C53.2,43.3,54.8,43.6,56.3,43.6"/>
	</g>
</g>
</svg>
