<svg xmlns="http://www.w3.org/2000/svg" xmlns:xlink="http://www.w3.org/1999/xlink" width="27.98mm" height="8.85mm" viewBox="0 0 79.31 25.1"><defs><clipPath id="a" transform="translate(-10 -18.5)"><rect x="-50.8" y="-28.7" width="200.8" height="125.5" fill="none"/></clipPath></defs><g clip-path="url(#a)"><path d="M68.6,21.8a2.11,2.11,0,0,0,1.3-.5,1.63,1.63,0,0,0,0-2.4h0a1.75,1.75,0,0,0-1.2-.4,2.11,2.11,0,0,0-1.3.5,1.66,1.66,0,0,0-.5,1.2,1,1,0,0,0,.5,1.1,1.35,1.35,0,0,0,1.2.5M67.2,43.2h2.9V25H67.2Z" transform="translate(-10 -18.5)" fill="#0d7282"/></g><g clip-path="url(#a)"><path d="M74.6,43.1h3V29.5L77,24.6l-3,.5.5,4.8ZM86.4,31.3V43.1h2.9V31.5a9.31,9.31,0,0,0-1.4-5.4,4.6,4.6,0,0,0-3.6-1.7,6,6,0,0,0-3.6,1.2,15.38,15.38,0,0,0-3.6,3.6V30a16.37,16.37,0,0,1,3.1-2.8,5,5,0,0,1,2.7-.8,3,3,0,0,1,2.5,1.2c.7.7,1,2,1,3.7" transform="translate(-10 -18.5)" fill="#0d7282"/></g><g clip-path="url(#a)"><path d="M38.8,42.1a6.2,6.2,0,0,1-4.1-1.6,13.78,13.78,0,0,1-3.2-4,10.05,10.05,0,0,1-1.2-4.8,7.17,7.17,0,0,1,.6-2.9,5.51,5.51,0,0,1,1.7-2,4.3,4.3,0,0,1,2.5-.7,6.2,6.2,0,0,1,4.1,1.6,11.7,11.7,0,0,1,3.2,4.1,10.05,10.05,0,0,1,1.2,4.8,7.17,7.17,0,0,1-.6,2.9,5.51,5.51,0,0,1-1.7,2,5.42,5.42,0,0,1-2.5.6m-2.2,1.5a8.45,8.45,0,0,0,4.6-1.3,8.94,8.94,0,0,0,3.2-3.5,10.91,10.91,0,0,0,.1-9.8,8,8,0,0,0-3-3.3,7.87,7.87,0,0,0-4.2-1.2,8.63,8.63,0,0,0-4.7,1.4,9.06,9.06,0,0,0-3.3,3.7,11.25,11.25,0,0,0-1.2,5.1,10.39,10.39,0,0,0,1.1,4.6,8.37,8.37,0,0,0,3,3.2,9.56,9.56,0,0,0,4.4,1.1" transform="translate(-10 -18.5)" fill="#0d7282"/></g><g clip-path="url(#a)"><path d="M10.5,43.1h3V29.5l-.6-4.9-2.9.5.5,4.8ZM22.3,31.3V43.1h2.9V31.5a9.31,9.31,0,0,0-1.4-5.4,4.6,4.6,0,0,0-3.6-1.7,6,6,0,0,0-3.6,1.2A15.38,15.38,0,0,0,13,29.2V30a16.37,16.37,0,0,1,3.1-2.8,5,5,0,0,1,2.7-.8,3,3,0,0,1,2.5,1.2c.7.7,1,2,1,3.7" transform="translate(-10 -18.5)" fill="#0d7282"/></g><g clip-path="url(#a)"><path d="M56.3,43.6a8.49,8.49,0,0,0,3.8-.9A11.8,11.8,0,0,0,63.3,40l-.4-.4a7.76,7.76,0,0,1-2.4,1.6,6.46,6.46,0,0,1-2.7.5,6.28,6.28,0,0,1-4-1.4,9,9,0,0,1-2.5-3.6,11.17,11.17,0,0,1-.9-4.4,9.74,9.74,0,0,1,.6-3.4,6.6,6.6,0,0,1,1.7-2.4,4.21,4.21,0,0,1,5.3.1,5.63,5.63,0,0,1,1.7,2.6,8.15,8.15,0,0,1,.6,3.1v.8l1.4-.6H49.9v.8H61.3a4.87,4.87,0,0,0,1.2-.1,1.34,1.34,0,0,0,.7-.6,3.19,3.19,0,0,0,.3-1.4,6.2,6.2,0,0,0-.9-3.2,6.6,6.6,0,0,0-6-3.3,8,8,0,0,0-4.5,1.4,8.82,8.82,0,0,0-3.2,3.7,10.84,10.84,0,0,0-1.2,5,11.16,11.16,0,0,0,1.1,4.7,8.37,8.37,0,0,0,3,3.2,11.66,11.66,0,0,0,4.5.9" transform="translate(-10 -18.5)" fill="#0d7282"/></g></svg>