<svg xmlns="http://www.w3.org/2000/svg" xmlns:xlink="http://www.w3.org/1999/xlink" width="35.28mm" height="22.93mm" viewBox="0 0 100.01 65"><defs><clipPath id="a"><rect x="-50.79" y="-28.7" width="200.8" height="125.5" fill="none"/></clipPath></defs><g clip-path="url(#a)"><path d="M68.6,21.8a1.94,1.94,0,0,0,1.3-.5,1.68,1.68,0,0,0,0-2.39h0a1.59,1.59,0,0,0-1.2-.4,1.91,1.91,0,0,0-1.3.5,1.68,1.68,0,0,0-.5,1.2,1.17,1.17,0,0,0,.5,1.1,1.35,1.35,0,0,0,1.2.5M67.2,43.2h2.9V25H67.2Z" fill="#0d7282"/></g><g clip-path="url(#a)"><path d="M74.6,43.1h3V29.5L77,24.6l-3,.5.5,4.8ZM86.4,31.3V43.1h2.9V31.5a8.67,8.67,0,0,0-1.4-5.4,4.6,4.6,0,0,0-3.6-1.7,6.47,6.47,0,0,0-3.6,1.2,15.38,15.38,0,0,0-3.6,3.6V30a17.93,17.93,0,0,1,3.1-2.8,4.65,4.65,0,0,1,2.7-.8,2.89,2.89,0,0,1,2.5,1.2c.7.7,1,2,1,3.7" fill="#0d7282"/></g><g clip-path="url(#a)"><path d="M38.8,42.1a6.29,6.29,0,0,1-4.1-1.6,12.55,12.55,0,0,1-3.2-4,10.69,10.69,0,0,1-1.2-4.8,6.89,6.89,0,0,1,.6-2.9,5.56,5.56,0,0,1,1.7-2,4.27,4.27,0,0,1,2.5-.7,6.27,6.27,0,0,1,4.1,1.6,12,12,0,0,1,3.2,4.1,11,11,0,0,1,1.2,4.8,6.74,6.74,0,0,1-.6,2.9,4.85,4.85,0,0,1-1.7,2,7.16,7.16,0,0,1-2.5.6m-2.2,1.5a8.23,8.23,0,0,0,4.6-1.3,9,9,0,0,0,3.2-3.5,11,11,0,0,0,.1-9.8,8.06,8.06,0,0,0-7.2-4.5,8.62,8.62,0,0,0-4.7,1.4,9.2,9.2,0,0,0-3.3,3.7,10.76,10.76,0,0,0-1.2,5.1,10.22,10.22,0,0,0,1.1,4.6,7.84,7.84,0,0,0,3,3.2,8.72,8.72,0,0,0,4.4,1.1" fill="#0d7282"/></g><g clip-path="url(#a)"><path d="M10.5,43.1h3V29.5l-.6-4.9-2.9.5.5,4.8ZM22.3,31.3V43.1h2.9V31.5a8.67,8.67,0,0,0-1.4-5.4,4.6,4.6,0,0,0-3.6-1.7,6.49,6.49,0,0,0-3.6,1.2A15.38,15.38,0,0,0,13,29.2V30a18.69,18.69,0,0,1,3.1-2.8,4.65,4.65,0,0,1,2.7-.8,2.88,2.88,0,0,1,2.5,1.2c.7.7,1,2,1,3.7" fill="#0d7282"/></g><g clip-path="url(#a)"><path d="M56.3,43.6a8,8,0,0,0,3.8-.9A11.23,11.23,0,0,0,63.3,40l-.4-.4a7.64,7.64,0,0,1-2.4,1.6,6.39,6.39,0,0,1-2.7.5,6.27,6.27,0,0,1-4-1.4,9.15,9.15,0,0,1-2.5-3.6,11.28,11.28,0,0,1-.9-4.4,9.17,9.17,0,0,1,.6-3.4,6.2,6.2,0,0,1,1.7-2.4,4.16,4.16,0,0,1,5.3.1,5.87,5.87,0,0,1,1.7,2.6,8.46,8.46,0,0,1,.6,3.1v.8l1.4-.6H49.9v.8H61.3a4.36,4.36,0,0,0,1.2-.1,1.29,1.29,0,0,0,.7-.6,2.63,2.63,0,0,0,.3-1.4,5.94,5.94,0,0,0-.9-3.2,6.65,6.65,0,0,0-6-3.3,8.22,8.22,0,0,0-4.5,1.4,8.9,8.9,0,0,0-3.2,3.7,10.6,10.6,0,0,0-1.2,5,10.37,10.37,0,0,0,1.1,4.7,7.77,7.77,0,0,0,3,3.2,13.36,13.36,0,0,0,4.5.9" fill="#0d7282"/></g></svg>