<svg xmlns="http://www.w3.org/2000/svg" xmlns:xlink="http://www.w3.org/1999/xlink" width="35.28mm" height="22.93mm" viewBox="0 0 100 65"><defs><clipPath id="a"><rect x="-50.8" y="-28.7" width="200.8" height="125.5" fill="none"/></clipPath></defs><g clip-path="url(#a)"><path d="M68.6,21.8a1.9,1.9,0,0,0,1.3-.5,1.69,1.69,0,0,0,0-2.4,1.59,1.59,0,0,0-1.2-.4,1.9,1.9,0,0,0-1.3.5,1.66,1.66,0,0,0-.5,1.2,1.17,1.17,0,0,0,.5,1.1,1.35,1.35,0,0,0,1.2.5M67.2,43.2h2.9V25H67.2Z" fill="#282828"/></g><g clip-path="url(#a)"><path d="M74.6,43.1h3V29.5L77,24.6l-3,.5.5,4.8.1,13.2ZM86.4,31.3V43.1h2.9V31.5a8.73,8.73,0,0,0-1.4-5.4,4.6,4.6,0,0,0-3.6-1.7,6.45,6.45,0,0,0-3.6,1.2,15.27,15.27,0,0,0-3.6,3.6V30a18,18,0,0,1,3.1-2.8,4.69,4.69,0,0,1,2.7-.8,2.91,2.91,0,0,1,2.5,1.2c.7.7,1,2,1,3.7" fill="#282828"/></g><g clip-path="url(#a)"><path d="M38.8,42.1a6.27,6.27,0,0,1-4.1-1.6,12.58,12.58,0,0,1-3.2-4,10.65,10.65,0,0,1-1.2-4.8,6.84,6.84,0,0,1,.6-2.9,5.51,5.51,0,0,1,1.7-2,4.3,4.3,0,0,1,2.5-.7,6.27,6.27,0,0,1,4.1,1.6,12,12,0,0,1,3.2,4.1,11,11,0,0,1,1.2,4.8,6.84,6.84,0,0,1-.6,2.9,4.8,4.8,0,0,1-1.7,2,7.05,7.05,0,0,1-2.5.6m-2.2,1.5a8.21,8.21,0,0,0,4.6-1.3,9,9,0,0,0,3.2-3.5,11,11,0,0,0,.1-9.8,8,8,0,0,0-3-3.3,7.87,7.87,0,0,0-4.2-1.2,8.63,8.63,0,0,0-4.7,1.4,9.14,9.14,0,0,0-3.3,3.7,10.67,10.67,0,0,0-1.2,5.1,10.07,10.07,0,0,0,1.1,4.6,7.72,7.72,0,0,0,3,3.2,8.69,8.69,0,0,0,4.4,1.1" fill="#282828"/></g><g clip-path="url(#a)"><path d="M10.5,43.1h3V29.5l-.6-4.9-2.9.5.5,4.8ZM22.3,31.3V43.1h2.9V31.5a8.73,8.73,0,0,0-1.4-5.4,4.6,4.6,0,0,0-3.6-1.7,6.45,6.45,0,0,0-3.6,1.2A15.27,15.27,0,0,0,13,29.2V30a18,18,0,0,1,3.1-2.8,4.69,4.69,0,0,1,2.7-.8,2.91,2.91,0,0,1,2.5,1.2c.7.7,1,2,1,3.7" fill="#282828"/></g><g clip-path="url(#a)"><path d="M56.3,43.6a7.9,7.9,0,0,0,3.8-.9A11.24,11.24,0,0,0,63.3,40l-.4-.4a7.76,7.76,0,0,1-2.4,1.6,6.46,6.46,0,0,1-2.7.5,6.28,6.28,0,0,1-4-1.4,9,9,0,0,1-2.5-3.6,11.17,11.17,0,0,1-.9-4.4,9,9,0,0,1,.6-3.4,6.14,6.14,0,0,1,1.7-2.4,4.17,4.17,0,0,1,5.3.1,5.91,5.91,0,0,1,1.7,2.6,8.53,8.53,0,0,1,.6,3.1v.8l1.4-.6H49.9v.8H61.3a4.12,4.12,0,0,0,1.2-.1,1.34,1.34,0,0,0,.7-.6,2.65,2.65,0,0,0,.3-1.4,6,6,0,0,0-.9-3.2,6.65,6.65,0,0,0-6-3.3,8.23,8.23,0,0,0-4.5,1.4,8.92,8.92,0,0,0-3.2,3.7,10.55,10.55,0,0,0-1.2,5,10.18,10.18,0,0,0,1.1,4.7,7.72,7.72,0,0,0,3,3.2,13.35,13.35,0,0,0,4.5.9" fill="#282828"/></g></svg>